<svg xmlns="http://www.w3.org/2000/svg" xmlns:xlink="http://www.w3.org/1999/xlink" width="80" zoomAndPan="magnify" viewBox="0 0 60 60" height="80" preserveAspectRatio="xMidYMid meet" version="1.0"><defs><clipPath id="4457401879"><path d="M 1.125 1.125 L 58.875 1.125 L 58.875 58.875 L 1.125 58.875 Z M 1.125 1.125 " clip-rule="nonzero"/></clipPath></defs><g clip-path="url(#4457401879)"><path fill="#0071ce" d="M 30 58.875 C 30.945312 58.875 31.890625 58.828125 32.832031 58.734375 C 33.769531 58.644531 34.707031 58.503906 35.632812 58.320312 C 36.5625 58.136719 37.476562 57.90625 38.382812 57.632812 C 39.285156 57.355469 40.175781 57.039062 41.050781 56.675781 C 41.921875 56.316406 42.777344 55.910156 43.613281 55.464844 C 44.445312 55.019531 45.253906 54.535156 46.042969 54.007812 C 46.828125 53.484375 47.585938 52.921875 48.316406 52.320312 C 49.050781 51.722656 49.75 51.085938 50.417969 50.417969 C 51.085938 49.75 51.722656 49.050781 52.320312 48.316406 C 52.921875 47.585938 53.484375 46.828125 54.007812 46.042969 C 54.535156 45.253906 55.019531 44.445312 55.464844 43.613281 C 55.910156 42.777344 56.316406 41.921875 56.675781 41.050781 C 57.039062 40.175781 57.355469 39.285156 57.632812 38.382812 C 57.90625 37.476562 58.136719 36.5625 58.320312 35.632812 C 58.503906 34.707031 58.644531 33.769531 58.734375 32.832031 C 58.828125 31.890625 58.875 30.945312 58.875 30 C 58.875 29.054688 58.828125 28.109375 58.734375 27.167969 C 58.644531 26.230469 58.503906 25.292969 58.320312 24.367188 C 58.136719 23.4375 57.90625 22.523438 57.632812 21.617188 C 57.355469 20.714844 57.039062 19.824219 56.675781 18.949219 C 56.316406 18.078125 55.910156 17.222656 55.464844 16.386719 C 55.019531 15.554688 54.535156 14.746094 54.007812 13.957031 C 53.484375 13.171875 52.921875 12.414062 52.320312 11.683594 C 51.722656 10.949219 51.085938 10.25 50.417969 9.582031 C 49.75 8.914062 49.050781 8.277344 48.316406 7.679688 C 47.585938 7.078125 46.828125 6.515625 46.042969 5.992188 C 45.253906 5.464844 44.445312 4.980469 43.613281 4.535156 C 42.777344 4.089844 41.921875 3.683594 41.050781 3.324219 C 40.175781 2.960938 39.285156 2.644531 38.382812 2.367188 C 37.476562 2.09375 36.5625 1.863281 35.632812 1.679688 C 34.707031 1.496094 33.769531 1.355469 32.832031 1.265625 C 31.890625 1.171875 30.945312 1.125 30 1.125 C 29.054688 1.125 28.109375 1.171875 27.167969 1.265625 C 26.230469 1.355469 25.292969 1.496094 24.367188 1.679688 C 23.4375 1.863281 22.523438 2.09375 21.617188 2.367188 C 20.714844 2.644531 19.824219 2.960938 18.949219 3.324219 C 18.078125 3.683594 17.222656 4.089844 16.386719 4.535156 C 15.554688 4.980469 14.746094 5.464844 13.957031 5.992188 C 13.171875 6.515625 12.414062 7.078125 11.683594 7.679688 C 10.949219 8.277344 10.25 8.914062 9.582031 9.582031 C 8.914062 10.25 8.277344 10.949219 7.679688 11.683594 C 7.078125 12.414062 6.515625 13.171875 5.992188 13.957031 C 5.464844 14.746094 4.980469 15.554688 4.535156 16.386719 C 4.089844 17.222656 3.683594 18.078125 3.324219 18.949219 C 2.960938 19.824219 2.644531 20.714844 2.367188 21.617188 C 2.09375 22.523438 1.863281 23.4375 1.679688 24.367188 C 1.496094 25.292969 1.355469 26.230469 1.265625 27.167969 C 1.171875 28.109375 1.125 29.054688 1.125 30 C 1.125 30.945312 1.171875 31.886719 1.265625 32.828125 C 1.359375 33.769531 1.5 34.703125 1.683594 35.632812 C 1.871094 36.558594 2.101562 37.472656 2.375 38.378906 C 2.652344 39.28125 2.96875 40.171875 3.332031 41.042969 C 3.695312 41.917969 4.097656 42.769531 4.542969 43.605469 C 4.992188 44.4375 5.476562 45.25 6 46.035156 C 6.527344 46.820312 7.089844 47.578125 7.6875 48.308594 C 8.289062 49.039062 8.921875 49.738281 9.59375 50.40625 C 10.261719 51.078125 10.960938 51.710938 11.691406 52.308594 C 12.421875 52.910156 13.179688 53.472656 13.964844 54 C 14.75 54.523438 15.5625 55.007812 16.394531 55.457031 C 17.230469 55.902344 18.082031 56.304688 18.957031 56.667969 C 19.828125 57.03125 20.71875 57.347656 21.621094 57.625 C 22.527344 57.898438 23.441406 58.128906 24.367188 58.316406 C 25.296875 58.5 26.230469 58.640625 27.171875 58.734375 C 28.113281 58.828125 29.054688 58.875 30 58.875 Z M 30 58.875 " fill-opacity="1" fill-rule="evenodd"/></g><path fill="#ffc220" d="M 30 21.480469 C 31.214844 21.480469 32.226562 20.808594 32.367188 20.011719 L 33.582031 6.285156 C 33.582031 4.941406 31.988281 3.808594 30.015625 3.808594 C 28.039062 3.808594 26.40625 4.941406 26.40625 6.285156 L 27.625 20.011719 C 27.75 20.808594 28.796875 21.480469 29.992188 21.480469 Z M 30 21.480469 " fill-opacity="1" fill-rule="nonzero"/><path fill="#ffc220" d="M 22.597656 25.738281 C 23.183594 24.644531 23.140625 23.472656 22.515625 22.929688 L 11.1875 15.042969 C 10.015625 14.375 8.253906 15.167969 7.25 16.886719 C 6.246094 18.605469 6.449219 20.582031 7.625 21.253906 L 20.125 27.035156 C 20.921875 27.332031 21.96875 26.785156 22.597656 25.738281 M 22.597656 25.738281 Z M 22.597656 25.738281 " fill-opacity="1" fill-rule="nonzero"/><path fill="#ffc220" d="M 37.445312 25.738281 C 38.074219 26.785156 39.121094 27.332031 39.875 27.035156 L 52.417969 21.253906 C 53.550781 20.539062 53.757812 18.648438 52.75 16.886719 C 51.742188 15.128906 49.984375 14.375 48.8125 15.042969 L 37.527344 22.933594 C 36.898438 23.476562 36.859375 24.652344 37.445312 25.746094 M 37.445312 25.746094 Z M 37.445312 25.746094 " fill-opacity="1" fill-rule="nonzero"/><path fill="#ffc220" d="M 30 38.578125 C 31.214844 38.578125 32.226562 39.207031 32.367188 40.042969 L 33.582031 53.773438 C 33.582031 55.117188 31.988281 56.207031 30.015625 56.207031 C 28.039062 56.207031 26.40625 55.117188 26.40625 53.773438 L 27.625 40.042969 C 27.75 39.207031 28.796875 38.578125 29.992188 38.578125 Z M 30 38.578125 " fill-opacity="1" fill-rule="nonzero"/><path fill="#ffc220" d="M 37.445312 34.296875 C 38.074219 33.253906 39.121094 32.664062 39.875 32.957031 L 52.417969 38.785156 C 53.550781 39.457031 53.757812 41.382812 52.75 43.105469 C 51.742188 44.832031 49.984375 45.664062 48.8125 45 L 37.527344 37.066406 C 36.898438 36.523438 36.859375 35.347656 37.445312 34.296875 M 37.445312 34.296875 Z M 37.445312 34.296875 " fill-opacity="1" fill-rule="nonzero"/><path fill="#ffc220" d="M 22.597656 34.296875 C 23.183594 35.347656 23.140625 36.523438 22.515625 37.066406 L 11.1875 44.953125 C 10.015625 45.664062 8.253906 44.824219 7.25 43.105469 C 6.246094 41.390625 6.449219 39.457031 7.625 38.785156 L 20.125 32.957031 C 20.921875 32.664062 21.96875 33.210938 22.597656 34.296875 Z M 22.597656 34.296875 " fill-opacity="1" fill-rule="nonzero"/></svg>